<svg width="20" height="20" viewBox="0 0 20 20" fill="none" xmlns="http://www.w3.org/2000/svg">
<path fill-rule="evenodd" clip-rule="evenodd" d="M4.35577 2H15.8756C16.1505 2 16.4044 2.14704 16.5414 2.3856L19.8976 8.22616C20.0717 8.52905 20.02 8.91134 19.7717 9.15696L10.5337 18.2967C10.2344 18.5928 9.75307 18.5928 9.45381 18.2967L0.228291 9.1693C-0.0257343 8.91798 -0.073302 8.52455 0.113496 8.21976L3.701 2.36686C3.84072 2.13892 4.08865 2 4.35577 2ZM14.3882 4.60761V6.2464H11.1066V7.3826C13.4114 7.50403 15.1405 8.00271 15.1533 8.60044L15.1533 9.84655C15.1404 10.4443 13.4114 10.943 11.1066 11.0644V13.8528H8.92764V11.0644C6.6229 10.943 4.89375 10.4443 4.88095 9.84655L4.88099 8.60044C4.89383 8.00271 6.6229 7.50403 8.92764 7.3826V6.2464H5.6461V4.60761H14.3882ZM10.0171 10.2083C12.4767 10.2083 14.5325 9.78664 15.0355 9.22351C14.6089 8.74598 13.0657 8.37013 11.1066 8.26691V9.45654C10.7555 9.47504 10.391 9.48479 10.0171 9.48479C9.64328 9.48479 9.27879 9.47504 8.92764 9.45654V8.26691C6.96852 8.37013 5.42534 8.74598 4.99871 9.22351C5.5018 9.78664 7.55758 10.2083 10.0171 10.2083Z" fill="#009393"/>
<path fill-rule="evenodd" clip-rule="evenodd" d="M14.3882 4.60761V6.2464H11.1066V7.38261C13.4114 7.50403 15.1405 8.00271 15.1534 8.60044L15.1533 9.84655C15.1405 10.4443 13.4114 10.943 11.1066 11.0644V13.8528H8.92767V11.0644C6.62293 10.943 4.89378 10.4443 4.88098 9.84655L4.88102 8.60044C4.89386 8.00271 6.62293 7.50403 8.92767 7.38261V6.2464H5.64613V4.60761H14.3882ZM15.0356 9.22352C14.5325 9.78664 12.4767 10.2083 10.0172 10.2083C7.5576 10.2083 5.50183 9.78664 4.99873 9.22352C5.42536 8.74598 6.96855 8.37013 8.92767 8.26691V9.45655C9.27882 9.47504 9.64331 9.48479 10.0172 9.48479C10.391 9.48479 10.7555 9.47504 11.1066 9.45655V8.26691C13.0658 8.37013 14.6089 8.74598 15.0356 9.22352Z" fill="white"/>
<path d="M15 20C17.7614 20 20 17.7614 20 15C20 12.2386 17.7614 10 15 10C12.2386 10 10 12.2386 10 15C10 17.7614 12.2386 20 15 20Z" fill="#0088CC"/>
<path fill-rule="evenodd" clip-rule="evenodd" d="M13.6091 13.3036H16.4134C16.5127 13.3036 16.6118 13.3181 16.7154 13.3664C16.8396 13.4243 16.9054 13.5156 16.9516 13.5831C16.9552 13.5883 16.9586 13.5938 16.9617 13.5993C17.0159 13.6959 17.0439 13.8001 17.0439 13.9123C17.0439 14.0189 17.0185 14.135 16.9617 14.2361C16.9611 14.2371 16.9606 14.2381 16.96 14.239L15.1883 17.2825C15.1492 17.3496 15.0773 17.3908 14.9996 17.3905C14.9219 17.3903 14.8503 17.3486 14.8117 17.2812L13.0725 14.2442C13.072 14.2434 13.0715 14.2425 13.071 14.2417C13.0312 14.1761 12.9697 14.0747 12.9589 13.9438C12.949 13.8234 12.9761 13.7028 13.0365 13.5983C13.097 13.4937 13.1881 13.4101 13.2976 13.3589C13.415 13.304 13.534 13.3036 13.6091 13.3036ZM14.783 13.7384H13.6091C13.532 13.7384 13.5024 13.7431 13.4817 13.7528C13.453 13.7661 13.429 13.7881 13.4129 13.8159C13.3969 13.8437 13.3896 13.8759 13.3922 13.9081C13.3937 13.9267 13.4013 13.9478 13.4457 14.0211C13.4467 14.0226 13.4476 14.0242 13.4485 14.0258L14.783 16.3561V13.7384ZM15.2178 13.7384V16.3676L16.5832 14.022C16.5986 13.9941 16.6091 13.9536 16.6091 13.9123C16.6091 13.8788 16.6021 13.8496 16.5866 13.8196C16.5703 13.7962 16.5604 13.7838 16.5521 13.7753C16.5449 13.768 16.5394 13.7641 16.5317 13.7605C16.4994 13.7455 16.4664 13.7384 16.4134 13.7384H15.2178Z" fill="white"/>
</svg>
