<svg xmlns="http://www.w3.org/2000/svg" xmlns:xlink="http://www.w3.org/1999/xlink" width="171" zoomAndPan="magnify" viewBox="0 0 128.25 30.000001" height="40" preserveAspectRatio="xMidYMid meet" version="1.0"><defs><g/><clipPath id="e4a6a9f5e2"><path d="M 3.222656 0.289062 L 29.351562 0.289062 L 29.351562 28.597656 L 3.222656 28.597656 Z M 3.222656 0.289062 " clip-rule="nonzero"/></clipPath></defs><g clip-path="url(#e4a6a9f5e2)"><path fill="#fcf304" d="M 13.246094 27.433594 C 15.09375 28.492188 17.363281 28.492188 19.210938 27.433594 L 26.09375 23.484375 C 27.953125 22.414062 29.101562 20.433594 29.101562 18.285156 L 29.101562 10.453125 C 29.101562 8.308594 27.953125 6.324219 26.09375 5.257812 L 19.210938 1.308594 C 17.363281 0.25 15.09375 0.25 13.246094 1.308594 L 6.367188 5.257812 C 4.503906 6.324219 3.355469 8.308594 3.355469 10.453125 L 3.355469 18.285156 C 3.355469 20.433594 4.503906 22.414062 6.367188 23.484375 Z M 13.246094 27.433594 " fill-opacity="1" fill-rule="nonzero"/></g><g fill="#11194b" fill-opacity="1"><g transform="translate(3.942908, 18.145163)"><g><path d="M 2.859375 0.96875 C 2.421875 0.96875 2.082031 0.859375 1.84375 0.640625 C 1.613281 0.421875 1.5 0.09375 1.5 -0.34375 L 1.5 -1.984375 C 1.5 -2.265625 1.4375 -2.460938 1.3125 -2.578125 C 1.195312 -2.691406 1.003906 -2.75 0.734375 -2.75 L 0.359375 -2.75 L 0.359375 -3.40625 L 0.734375 -3.40625 C 1.003906 -3.40625 1.195312 -3.460938 1.3125 -3.578125 C 1.4375 -3.691406 1.5 -3.890625 1.5 -4.171875 L 1.5 -5.8125 C 1.5 -6.238281 1.613281 -6.5625 1.84375 -6.78125 C 2.082031 -7 2.421875 -7.109375 2.859375 -7.109375 L 3.328125 -7.109375 L 3.328125 -6.515625 L 2.953125 -6.515625 C 2.703125 -6.515625 2.515625 -6.457031 2.390625 -6.34375 C 2.265625 -6.226562 2.203125 -6.050781 2.203125 -5.8125 L 2.203125 -4.234375 C 2.203125 -3.921875 2.144531 -3.675781 2.03125 -3.5 C 1.914062 -3.332031 1.742188 -3.207031 1.515625 -3.125 L 1.515625 -3.03125 C 1.742188 -2.9375 1.914062 -2.804688 2.03125 -2.640625 C 2.144531 -2.472656 2.203125 -2.234375 2.203125 -1.921875 L 2.203125 -0.34375 C 2.203125 -0.101562 2.265625 0.0703125 2.390625 0.1875 C 2.515625 0.300781 2.703125 0.359375 2.953125 0.359375 L 3.328125 0.359375 L 3.328125 0.96875 Z M 2.859375 0.96875 "/></g></g></g><g fill="#11194b" fill-opacity="1"><g transform="translate(7.605962, 18.145163)"><g><path d="M 5.421875 -1.984375 C 5.421875 -1.398438 5.25 -0.925781 4.90625 -0.5625 C 4.5625 -0.195312 4.0625 0.015625 3.40625 0.078125 L 3.40625 1.0625 L 2.390625 1.0625 L 2.390625 0.0625 C 1.859375 0 1.414062 -0.140625 1.0625 -0.359375 C 0.707031 -0.585938 0.441406 -0.847656 0.265625 -1.140625 L 0.96875 -1.984375 L 1.078125 -1.984375 C 1.234375 -1.765625 1.421875 -1.570312 1.640625 -1.40625 C 1.859375 -1.25 2.109375 -1.140625 2.390625 -1.078125 L 2.390625 -2.984375 L 2.265625 -3.015625 C 1.660156 -3.148438 1.207031 -3.367188 0.90625 -3.671875 C 0.613281 -3.984375 0.46875 -4.394531 0.46875 -4.90625 C 0.46875 -5.25 0.539062 -5.550781 0.6875 -5.8125 C 0.84375 -6.070312 1.0625 -6.285156 1.34375 -6.453125 C 1.632812 -6.628906 1.984375 -6.742188 2.390625 -6.796875 L 2.390625 -7.78125 L 3.40625 -7.78125 L 3.40625 -6.796875 C 3.789062 -6.753906 4.125 -6.664062 4.40625 -6.53125 C 4.695312 -6.40625 4.945312 -6.222656 5.15625 -5.984375 L 4.546875 -5.140625 L 4.421875 -5.140625 C 4.148438 -5.421875 3.8125 -5.601562 3.40625 -5.6875 L 3.40625 -3.96875 L 3.546875 -3.921875 C 4.210938 -3.785156 4.691406 -3.554688 4.984375 -3.234375 C 5.273438 -2.921875 5.421875 -2.503906 5.421875 -1.984375 Z M 1.71875 -4.953125 C 1.71875 -4.773438 1.765625 -4.625 1.859375 -4.5 C 1.960938 -4.375 2.140625 -4.273438 2.390625 -4.203125 L 2.390625 -5.671875 C 2.160156 -5.617188 1.988281 -5.53125 1.875 -5.40625 C 1.769531 -5.28125 1.71875 -5.128906 1.71875 -4.953125 Z M 3.40625 -1.046875 C 3.644531 -1.097656 3.820312 -1.195312 3.9375 -1.34375 C 4.0625 -1.5 4.125 -1.679688 4.125 -1.890625 C 4.125 -2.097656 4.066406 -2.269531 3.953125 -2.40625 C 3.847656 -2.539062 3.664062 -2.648438 3.40625 -2.734375 Z M 3.40625 -1.046875 "/></g></g></g><g fill="#11194b" fill-opacity="1"><g transform="translate(13.378657, 18.145163)"><g><path d="M 5.421875 -1.984375 C 5.421875 -1.398438 5.25 -0.925781 4.90625 -0.5625 C 4.5625 -0.195312 4.0625 0.015625 3.40625 0.078125 L 3.40625 1.0625 L 2.390625 1.0625 L 2.390625 0.0625 C 1.859375 0 1.414062 -0.140625 1.0625 -0.359375 C 0.707031 -0.585938 0.441406 -0.847656 0.265625 -1.140625 L 0.96875 -1.984375 L 1.078125 -1.984375 C 1.234375 -1.765625 1.421875 -1.570312 1.640625 -1.40625 C 1.859375 -1.25 2.109375 -1.140625 2.390625 -1.078125 L 2.390625 -2.984375 L 2.265625 -3.015625 C 1.660156 -3.148438 1.207031 -3.367188 0.90625 -3.671875 C 0.613281 -3.984375 0.46875 -4.394531 0.46875 -4.90625 C 0.46875 -5.25 0.539062 -5.550781 0.6875 -5.8125 C 0.84375 -6.070312 1.0625 -6.285156 1.34375 -6.453125 C 1.632812 -6.628906 1.984375 -6.742188 2.390625 -6.796875 L 2.390625 -7.78125 L 3.40625 -7.78125 L 3.40625 -6.796875 C 3.789062 -6.753906 4.125 -6.664062 4.40625 -6.53125 C 4.695312 -6.40625 4.945312 -6.222656 5.15625 -5.984375 L 4.546875 -5.140625 L 4.421875 -5.140625 C 4.148438 -5.421875 3.8125 -5.601562 3.40625 -5.6875 L 3.40625 -3.96875 L 3.546875 -3.921875 C 4.210938 -3.785156 4.691406 -3.554688 4.984375 -3.234375 C 5.273438 -2.921875 5.421875 -2.503906 5.421875 -1.984375 Z M 1.71875 -4.953125 C 1.71875 -4.773438 1.765625 -4.625 1.859375 -4.5 C 1.960938 -4.375 2.140625 -4.273438 2.390625 -4.203125 L 2.390625 -5.671875 C 2.160156 -5.617188 1.988281 -5.53125 1.875 -5.40625 C 1.769531 -5.28125 1.71875 -5.128906 1.71875 -4.953125 Z M 3.40625 -1.046875 C 3.644531 -1.097656 3.820312 -1.195312 3.9375 -1.34375 C 4.0625 -1.5 4.125 -1.679688 4.125 -1.890625 C 4.125 -2.097656 4.066406 -2.269531 3.953125 -2.40625 C 3.847656 -2.539062 3.664062 -2.648438 3.40625 -2.734375 Z M 3.40625 -1.046875 "/></g></g></g><g fill="#11194b" fill-opacity="1"><g transform="translate(19.151353, 18.145163)"><g><path d="M 5.421875 -1.984375 C 5.421875 -1.398438 5.25 -0.925781 4.90625 -0.5625 C 4.5625 -0.195312 4.0625 0.015625 3.40625 0.078125 L 3.40625 1.0625 L 2.390625 1.0625 L 2.390625 0.0625 C 1.859375 0 1.414062 -0.140625 1.0625 -0.359375 C 0.707031 -0.585938 0.441406 -0.847656 0.265625 -1.140625 L 0.96875 -1.984375 L 1.078125 -1.984375 C 1.234375 -1.765625 1.421875 -1.570312 1.640625 -1.40625 C 1.859375 -1.25 2.109375 -1.140625 2.390625 -1.078125 L 2.390625 -2.984375 L 2.265625 -3.015625 C 1.660156 -3.148438 1.207031 -3.367188 0.90625 -3.671875 C 0.613281 -3.984375 0.46875 -4.394531 0.46875 -4.90625 C 0.46875 -5.25 0.539062 -5.550781 0.6875 -5.8125 C 0.84375 -6.070312 1.0625 -6.285156 1.34375 -6.453125 C 1.632812 -6.628906 1.984375 -6.742188 2.390625 -6.796875 L 2.390625 -7.78125 L 3.40625 -7.78125 L 3.40625 -6.796875 C 3.789062 -6.753906 4.125 -6.664062 4.40625 -6.53125 C 4.695312 -6.40625 4.945312 -6.222656 5.15625 -5.984375 L 4.546875 -5.140625 L 4.421875 -5.140625 C 4.148438 -5.421875 3.8125 -5.601562 3.40625 -5.6875 L 3.40625 -3.96875 L 3.546875 -3.921875 C 4.210938 -3.785156 4.691406 -3.554688 4.984375 -3.234375 C 5.273438 -2.921875 5.421875 -2.503906 5.421875 -1.984375 Z M 1.71875 -4.953125 C 1.71875 -4.773438 1.765625 -4.625 1.859375 -4.5 C 1.960938 -4.375 2.140625 -4.273438 2.390625 -4.203125 L 2.390625 -5.671875 C 2.160156 -5.617188 1.988281 -5.53125 1.875 -5.40625 C 1.769531 -5.28125 1.71875 -5.128906 1.71875 -4.953125 Z M 3.40625 -1.046875 C 3.644531 -1.097656 3.820312 -1.195312 3.9375 -1.34375 C 4.0625 -1.5 4.125 -1.679688 4.125 -1.890625 C 4.125 -2.097656 4.066406 -2.269531 3.953125 -2.40625 C 3.847656 -2.539062 3.664062 -2.648438 3.40625 -2.734375 Z M 3.40625 -1.046875 "/></g></g></g><g fill="#11194b" fill-opacity="1"><g transform="translate(24.934591, 18.145163)"><g><path d="M 0.328125 0.96875 L 0.328125 0.359375 L 0.703125 0.359375 C 0.953125 0.359375 1.132812 0.300781 1.25 0.1875 C 1.375 0.0703125 1.4375 -0.101562 1.4375 -0.34375 L 1.4375 -1.921875 C 1.4375 -2.234375 1.492188 -2.472656 1.609375 -2.640625 C 1.734375 -2.804688 1.914062 -2.9375 2.15625 -3.03125 L 2.15625 -3.125 C 1.914062 -3.207031 1.734375 -3.332031 1.609375 -3.5 C 1.492188 -3.675781 1.4375 -3.921875 1.4375 -4.234375 L 1.4375 -5.8125 C 1.4375 -6.050781 1.375 -6.226562 1.25 -6.34375 C 1.132812 -6.457031 0.953125 -6.515625 0.703125 -6.515625 L 0.328125 -6.515625 L 0.328125 -7.109375 L 0.796875 -7.109375 C 1.234375 -7.109375 1.566406 -7 1.796875 -6.78125 C 2.035156 -6.5625 2.15625 -6.238281 2.15625 -5.8125 L 2.15625 -4.171875 C 2.15625 -3.890625 2.210938 -3.691406 2.328125 -3.578125 C 2.453125 -3.460938 2.648438 -3.40625 2.921875 -3.40625 L 3.296875 -3.40625 L 3.296875 -2.75 L 2.921875 -2.75 C 2.648438 -2.75 2.453125 -2.691406 2.328125 -2.578125 C 2.210938 -2.460938 2.15625 -2.265625 2.15625 -1.984375 L 2.15625 -0.34375 C 2.15625 0.09375 2.035156 0.421875 1.796875 0.640625 C 1.566406 0.859375 1.234375 0.96875 0.796875 0.96875 Z M 0.328125 0.96875 "/></g></g></g><g fill="#ffffff" fill-opacity="1"><g transform="translate(30.964715, 21.048389)"><g><path d="M 12.46875 -7.59375 C 13.300781 -7.332031 13.953125 -6.890625 14.421875 -6.265625 C 14.898438 -5.648438 15.140625 -4.890625 15.140625 -3.984375 C 15.140625 -2.703125 14.640625 -1.71875 13.640625 -1.03125 C 12.648438 -0.34375 11.203125 0 9.296875 0 L 1.734375 0 L 1.734375 -14.609375 L 8.875 -14.609375 C 10.65625 -14.609375 12.019531 -14.265625 12.96875 -13.578125 C 13.925781 -12.898438 14.40625 -11.976562 14.40625 -10.8125 C 14.40625 -10.101562 14.234375 -9.46875 13.890625 -8.90625 C 13.546875 -8.351562 13.070312 -7.914062 12.46875 -7.59375 Z M 5.09375 -12.0625 L 5.09375 -8.625 L 8.453125 -8.625 C 9.285156 -8.625 9.914062 -8.769531 10.34375 -9.0625 C 10.78125 -9.351562 11 -9.785156 11 -10.359375 C 11 -10.921875 10.78125 -11.34375 10.34375 -11.625 C 9.914062 -11.914062 9.285156 -12.0625 8.453125 -12.0625 Z M 9.03125 -2.546875 C 9.925781 -2.546875 10.597656 -2.691406 11.046875 -2.984375 C 11.503906 -3.273438 11.734375 -3.726562 11.734375 -4.34375 C 11.734375 -5.550781 10.832031 -6.15625 9.03125 -6.15625 L 5.09375 -6.15625 L 5.09375 -2.546875 Z M 9.03125 -2.546875 "/></g></g></g><g fill="#ffffff" fill-opacity="1"><g transform="translate(46.927894, 21.048389)"><g><path d="M 1.734375 -14.609375 L 5.109375 -14.609375 L 5.109375 0 L 1.734375 0 Z M 1.734375 -14.609375 "/></g></g></g><g fill="#ffffff" fill-opacity="1"><g transform="translate(53.772232, 21.048389)"><g><path d="M 4.765625 -11.859375 L 0.078125 -11.859375 L 0.078125 -14.609375 L 12.8125 -14.609375 L 12.8125 -11.859375 L 8.140625 -11.859375 L 8.140625 0 L 4.765625 0 Z M 4.765625 -11.859375 "/></g></g></g><g fill="#7f7f7f" fill-opacity="1"><g transform="translate(66.676661, 21.048389)"><g><path d="M 2.375 -14.609375 L 8.328125 -14.609375 C 9.867188 -14.609375 11.226562 -14.296875 12.40625 -13.671875 C 13.59375 -13.054688 14.515625 -12.195312 15.171875 -11.09375 C 15.828125 -9.988281 16.15625 -8.726562 16.15625 -7.3125 C 16.15625 -5.882812 15.828125 -4.617188 15.171875 -3.515625 C 14.515625 -2.410156 13.59375 -1.546875 12.40625 -0.921875 C 11.226562 -0.304688 9.867188 0 8.328125 0 L 2.375 0 Z M 8.25 -1.34375 C 9.53125 -1.34375 10.648438 -1.59375 11.609375 -2.09375 C 12.566406 -2.601562 13.3125 -3.304688 13.84375 -4.203125 C 14.375 -5.097656 14.640625 -6.132812 14.640625 -7.3125 C 14.640625 -8.476562 14.375 -9.507812 13.84375 -10.40625 C 13.3125 -11.300781 12.566406 -12.003906 11.609375 -12.515625 C 10.648438 -13.023438 9.53125 -13.28125 8.25 -13.28125 L 3.921875 -13.28125 L 3.921875 -1.34375 Z M 8.25 -1.34375 "/></g></g></g><g fill="#7f7f7f" fill-opacity="1"><g transform="translate(83.912714, 21.048389)"><g><path d="M 12.71875 -1.34375 L 12.71875 0 L 2.375 0 L 2.375 -14.609375 L 12.40625 -14.609375 L 12.40625 -13.28125 L 3.921875 -13.28125 L 3.921875 -8.078125 L 11.484375 -8.078125 L 11.484375 -6.765625 L 3.921875 -6.765625 L 3.921875 -1.34375 Z M 12.71875 -1.34375 "/></g></g></g><g fill="#7f7f7f" fill-opacity="1"><g transform="translate(97.872672, 21.048389)"><g><path d="M 12.359375 0 L 9.015625 -4.703125 C 8.640625 -4.660156 8.25 -4.640625 7.84375 -4.640625 L 3.921875 -4.640625 L 3.921875 0 L 2.375 0 L 2.375 -14.609375 L 7.84375 -14.609375 C 9.707031 -14.609375 11.164062 -14.160156 12.21875 -13.265625 C 13.28125 -12.378906 13.8125 -11.160156 13.8125 -9.609375 C 13.8125 -8.460938 13.523438 -7.492188 12.953125 -6.703125 C 12.378906 -5.921875 11.554688 -5.359375 10.484375 -5.015625 L 14.046875 0 Z M 7.8125 -5.953125 C 9.257812 -5.953125 10.363281 -6.269531 11.125 -6.90625 C 11.894531 -7.550781 12.28125 -8.453125 12.28125 -9.609375 C 12.28125 -10.785156 11.894531 -11.691406 11.125 -12.328125 C 10.363281 -12.960938 9.257812 -13.28125 7.8125 -13.28125 L 3.921875 -13.28125 L 3.921875 -5.953125 Z M 7.8125 -5.953125 "/></g></g></g><g fill="#7f7f7f" fill-opacity="1"><g transform="translate(112.959436, 21.048389)"><g><path d="M 6.40625 0.125 C 5.320312 0.125 4.28125 -0.046875 3.28125 -0.390625 C 2.289062 -0.742188 1.523438 -1.207031 0.984375 -1.78125 L 1.59375 -2.96875 C 2.113281 -2.4375 2.8125 -2.003906 3.6875 -1.671875 C 4.570312 -1.347656 5.476562 -1.1875 6.40625 -1.1875 C 7.71875 -1.1875 8.695312 -1.425781 9.34375 -1.90625 C 10 -2.382812 10.328125 -3.007812 10.328125 -3.78125 C 10.328125 -4.363281 10.148438 -4.828125 9.796875 -5.171875 C 9.441406 -5.523438 9.003906 -5.796875 8.484375 -5.984375 C 7.972656 -6.171875 7.257812 -6.375 6.34375 -6.59375 C 5.25 -6.875 4.375 -7.140625 3.71875 -7.390625 C 3.0625 -7.648438 2.5 -8.046875 2.03125 -8.578125 C 1.570312 -9.109375 1.34375 -9.828125 1.34375 -10.734375 C 1.34375 -11.472656 1.535156 -12.144531 1.921875 -12.75 C 2.304688 -13.351562 2.898438 -13.832031 3.703125 -14.1875 C 4.515625 -14.550781 5.519531 -14.734375 6.71875 -14.734375 C 7.550781 -14.734375 8.367188 -14.617188 9.171875 -14.390625 C 9.972656 -14.160156 10.664062 -13.84375 11.25 -13.4375 L 10.734375 -12.21875 C 10.117188 -12.613281 9.460938 -12.910156 8.765625 -13.109375 C 8.066406 -13.316406 7.382812 -13.421875 6.71875 -13.421875 C 5.4375 -13.421875 4.472656 -13.171875 3.828125 -12.671875 C 3.179688 -12.179688 2.859375 -11.546875 2.859375 -10.765625 C 2.859375 -10.179688 3.035156 -9.710938 3.390625 -9.359375 C 3.742188 -9.003906 4.1875 -8.734375 4.71875 -8.546875 C 5.257812 -8.359375 5.984375 -8.15625 6.890625 -7.9375 C 7.960938 -7.664062 8.828125 -7.398438 9.484375 -7.140625 C 10.148438 -6.890625 10.710938 -6.503906 11.171875 -5.984375 C 11.628906 -5.460938 11.859375 -4.753906 11.859375 -3.859375 C 11.859375 -3.117188 11.660156 -2.445312 11.265625 -1.84375 C 10.867188 -1.238281 10.257812 -0.757812 9.4375 -0.40625 C 8.613281 -0.0507812 7.601562 0.125 6.40625 0.125 Z M 6.40625 0.125 "/></g></g></g></svg>