<svg xmlns="http://www.w3.org/2000/svg" xmlns:xlink="http://www.w3.org/1999/xlink" width="512" zoomAndPan="magnify" viewBox="0 0 384 383.999986" height="512" preserveAspectRatio="xMidYMid meet" version="1.0"><defs><g/></defs><path fill="#a6a6a6" d="M 151.070312 369.167969 C 176.117188 383.539062 206.910156 383.539062 231.960938 369.167969 L 325.296875 315.613281 C 350.550781 301.125 366.121094 274.238281 366.121094 245.125 L 366.121094 138.886719 C 366.121094 109.773438 350.550781 82.886719 325.296875 68.398438 L 231.960938 14.84375 C 206.910156 0.472656 176.117188 0.472656 151.070312 14.84375 L 57.730469 68.398438 C 32.480469 82.886719 16.90625 109.773438 16.90625 138.886719 L 16.90625 245.125 C 16.90625 274.238281 32.480469 301.125 57.730469 315.613281 Z M 151.070312 369.167969 " fill-opacity="1" fill-rule="nonzero"/><g fill="#11194b" fill-opacity="1"><g transform="translate(25.776948, 241.841923)"><g><path d="M 39.171875 13.203125 C 33.234375 13.203125 28.648438 11.707031 25.421875 8.71875 C 22.203125 5.726562 20.59375 1.242188 20.59375 -4.734375 L 20.59375 -27.171875 C 20.59375 -31.046875 19.78125 -33.769531 18.15625 -35.34375 C 16.539062 -36.925781 13.835938 -37.71875 10.046875 -37.71875 L 4.984375 -37.71875 L 4.984375 -46.6875 L 10.046875 -46.6875 C 13.835938 -46.6875 16.539062 -47.484375 18.15625 -49.078125 C 19.78125 -50.679688 20.59375 -53.421875 20.59375 -57.296875 L 20.59375 -79.734375 C 20.59375 -85.710938 22.203125 -90.195312 25.421875 -93.1875 C 28.648438 -96.175781 33.234375 -97.671875 39.171875 -97.671875 L 45.671875 -97.671875 L 45.671875 -89.46875 L 40.5 -89.46875 C 37.039062 -89.46875 34.476562 -88.675781 32.8125 -87.09375 C 31.15625 -85.507812 30.328125 -83.054688 30.328125 -79.734375 L 30.328125 -58.0625 C 30.328125 -53.8125 29.515625 -50.515625 27.890625 -48.171875 C 26.273438 -45.835938 23.882812 -44.082031 20.71875 -42.90625 L 20.71875 -41.578125 C 23.882812 -40.390625 26.273438 -38.628906 27.890625 -36.296875 C 29.515625 -33.960938 30.328125 -30.664062 30.328125 -26.40625 L 30.328125 -4.734375 C 30.328125 -1.410156 31.15625 1.035156 32.8125 2.609375 C 34.476562 4.191406 37.039062 4.984375 40.5 4.984375 L 45.671875 4.984375 L 45.671875 13.203125 Z M 39.171875 13.203125 "/></g></g></g><g fill="#11194b" fill-opacity="1"><g transform="translate(76.086152, 241.841923)"><g><path d="M 74.359375 -27.234375 C 74.359375 -19.273438 72.019531 -12.796875 67.34375 -7.796875 C 62.675781 -2.804688 55.832031 0.128906 46.8125 1.015625 L 46.8125 14.53125 L 32.734375 14.53125 L 32.734375 0.828125 C 25.566406 -0.0546875 19.53125 -2.015625 14.625 -5.046875 C 9.71875 -8.085938 6.085938 -11.648438 3.734375 -15.734375 L 13.203125 -27.296875 L 14.78125 -27.296875 C 16.882812 -24.222656 19.441406 -21.585938 22.453125 -19.390625 C 25.472656 -17.203125 28.898438 -15.644531 32.734375 -14.71875 L 32.734375 -41.0625 L 31.140625 -41.453125 C 22.804688 -43.335938 16.613281 -46.382812 12.5625 -50.59375 C 8.519531 -54.8125 6.5 -60.414062 6.5 -67.40625 C 6.5 -72.039062 7.519531 -76.179688 9.5625 -79.828125 C 11.613281 -83.472656 14.609375 -86.453125 18.546875 -88.765625 C 22.484375 -91.078125 27.210938 -92.570312 32.734375 -93.25 L 32.734375 -106.90625 L 46.8125 -106.90625 L 46.8125 -93.375 C 52.082031 -92.832031 56.6875 -91.65625 60.625 -89.84375 C 64.5625 -88.03125 67.984375 -85.503906 70.890625 -82.265625 L 62.359375 -70.578125 L 60.78125 -70.578125 C 57.03125 -74.453125 52.375 -76.957031 46.8125 -78.09375 L 46.8125 -54.390625 L 48.78125 -53.953125 C 57.832031 -52.015625 64.359375 -48.875 68.359375 -44.53125 C 72.359375 -40.195312 74.359375 -34.429688 74.359375 -27.234375 Z M 23.5 -68.109375 C 23.5 -65.578125 24.191406 -63.476562 25.578125 -61.8125 C 26.972656 -60.15625 29.359375 -58.78125 32.734375 -57.6875 L 32.734375 -77.96875 C 29.648438 -77.25 27.335938 -76.023438 25.796875 -74.296875 C 24.265625 -72.566406 23.5 -70.503906 23.5 -68.109375 Z M 46.8125 -14.34375 C 50.101562 -15.0625 52.554688 -16.453125 54.171875 -18.515625 C 55.796875 -20.578125 56.609375 -23.082031 56.609375 -26.03125 C 56.609375 -28.894531 55.867188 -31.253906 54.390625 -33.109375 C 52.921875 -34.960938 50.394531 -36.476562 46.8125 -37.65625 Z M 46.8125 -14.34375 "/></g></g></g><g fill="#11194b" fill-opacity="1"><g transform="translate(155.369632, 241.841923)"><g><path d="M 74.359375 -27.234375 C 74.359375 -19.273438 72.019531 -12.796875 67.34375 -7.796875 C 62.675781 -2.804688 55.832031 0.128906 46.8125 1.015625 L 46.8125 14.53125 L 32.734375 14.53125 L 32.734375 0.828125 C 25.566406 -0.0546875 19.53125 -2.015625 14.625 -5.046875 C 9.71875 -8.085938 6.085938 -11.648438 3.734375 -15.734375 L 13.203125 -27.296875 L 14.78125 -27.296875 C 16.882812 -24.222656 19.441406 -21.585938 22.453125 -19.390625 C 25.472656 -17.203125 28.898438 -15.644531 32.734375 -14.71875 L 32.734375 -41.0625 L 31.140625 -41.453125 C 22.804688 -43.335938 16.613281 -46.382812 12.5625 -50.59375 C 8.519531 -54.8125 6.5 -60.414062 6.5 -67.40625 C 6.5 -72.039062 7.519531 -76.179688 9.5625 -79.828125 C 11.613281 -83.472656 14.609375 -86.453125 18.546875 -88.765625 C 22.484375 -91.078125 27.210938 -92.570312 32.734375 -93.25 L 32.734375 -106.90625 L 46.8125 -106.90625 L 46.8125 -93.375 C 52.082031 -92.832031 56.6875 -91.65625 60.625 -89.84375 C 64.5625 -88.03125 67.984375 -85.503906 70.890625 -82.265625 L 62.359375 -70.578125 L 60.78125 -70.578125 C 57.03125 -74.453125 52.375 -76.957031 46.8125 -78.09375 L 46.8125 -54.390625 L 48.78125 -53.953125 C 57.832031 -52.015625 64.359375 -48.875 68.359375 -44.53125 C 72.359375 -40.195312 74.359375 -34.429688 74.359375 -27.234375 Z M 23.5 -68.109375 C 23.5 -65.578125 24.191406 -63.476562 25.578125 -61.8125 C 26.972656 -60.15625 29.359375 -58.78125 32.734375 -57.6875 L 32.734375 -77.96875 C 29.648438 -77.25 27.335938 -76.023438 25.796875 -74.296875 C 24.265625 -72.566406 23.5 -70.503906 23.5 -68.109375 Z M 46.8125 -14.34375 C 50.101562 -15.0625 52.554688 -16.453125 54.171875 -18.515625 C 55.796875 -20.578125 56.609375 -23.082031 56.609375 -26.03125 C 56.609375 -28.894531 55.867188 -31.253906 54.390625 -33.109375 C 52.921875 -34.960938 50.394531 -36.476562 46.8125 -37.65625 Z M 46.8125 -14.34375 "/></g></g></g><g fill="#11194b" fill-opacity="1"><g transform="translate(234.653112, 241.841923)"><g><path d="M 74.359375 -27.234375 C 74.359375 -19.273438 72.019531 -12.796875 67.34375 -7.796875 C 62.675781 -2.804688 55.832031 0.128906 46.8125 1.015625 L 46.8125 14.53125 L 32.734375 14.53125 L 32.734375 0.828125 C 25.566406 -0.0546875 19.53125 -2.015625 14.625 -5.046875 C 9.71875 -8.085938 6.085938 -11.648438 3.734375 -15.734375 L 13.203125 -27.296875 L 14.78125 -27.296875 C 16.882812 -24.222656 19.441406 -21.585938 22.453125 -19.390625 C 25.472656 -17.203125 28.898438 -15.644531 32.734375 -14.71875 L 32.734375 -41.0625 L 31.140625 -41.453125 C 22.804688 -43.335938 16.613281 -46.382812 12.5625 -50.59375 C 8.519531 -54.8125 6.5 -60.414062 6.5 -67.40625 C 6.5 -72.039062 7.519531 -76.179688 9.5625 -79.828125 C 11.613281 -83.472656 14.609375 -86.453125 18.546875 -88.765625 C 22.484375 -91.078125 27.210938 -92.570312 32.734375 -93.25 L 32.734375 -106.90625 L 46.8125 -106.90625 L 46.8125 -93.375 C 52.082031 -92.832031 56.6875 -91.65625 60.625 -89.84375 C 64.5625 -88.03125 67.984375 -85.503906 70.890625 -82.265625 L 62.359375 -70.578125 L 60.78125 -70.578125 C 57.03125 -74.453125 52.375 -76.957031 46.8125 -78.09375 L 46.8125 -54.390625 L 48.78125 -53.953125 C 57.832031 -52.015625 64.359375 -48.875 68.359375 -44.53125 C 72.359375 -40.195312 74.359375 -34.429688 74.359375 -27.234375 Z M 23.5 -68.109375 C 23.5 -65.578125 24.191406 -63.476562 25.578125 -61.8125 C 26.972656 -60.15625 29.359375 -58.78125 32.734375 -57.6875 L 32.734375 -77.96875 C 29.648438 -77.25 27.335938 -76.023438 25.796875 -74.296875 C 24.265625 -72.566406 23.5 -70.503906 23.5 -68.109375 Z M 46.8125 -14.34375 C 50.101562 -15.0625 52.554688 -16.453125 54.171875 -18.515625 C 55.796875 -20.578125 56.609375 -23.082031 56.609375 -26.03125 C 56.609375 -28.894531 55.867188 -31.253906 54.390625 -33.109375 C 52.921875 -34.960938 50.394531 -36.476562 46.8125 -37.65625 Z M 46.8125 -14.34375 "/></g></g></g><g fill="#11194b" fill-opacity="1"><g transform="translate(314.081397, 241.841923)"><g><path d="M 4.546875 13.203125 L 4.546875 4.984375 L 9.671875 4.984375 C 13.117188 4.984375 15.675781 4.191406 17.34375 2.609375 C 19.007812 1.035156 19.84375 -1.410156 19.84375 -4.734375 L 19.84375 -26.40625 C 19.84375 -30.664062 20.648438 -33.960938 22.265625 -36.296875 C 23.890625 -38.628906 26.300781 -40.390625 29.5 -41.578125 L 29.5 -42.90625 C 26.300781 -44.082031 23.890625 -45.835938 22.265625 -48.171875 C 20.648438 -50.515625 19.84375 -53.8125 19.84375 -58.0625 L 19.84375 -79.734375 C 19.84375 -83.054688 19.007812 -85.507812 17.34375 -87.09375 C 15.675781 -88.675781 13.117188 -89.46875 9.671875 -89.46875 L 4.546875 -89.46875 L 4.546875 -97.671875 L 11 -97.671875 C 16.9375 -97.671875 21.523438 -96.175781 24.765625 -93.1875 C 28.003906 -90.195312 29.625 -85.710938 29.625 -79.734375 L 29.625 -57.296875 C 29.625 -53.421875 30.4375 -50.679688 32.0625 -49.078125 C 33.6875 -47.484375 36.394531 -46.6875 40.1875 -46.6875 L 45.171875 -46.6875 L 45.171875 -37.71875 L 40.1875 -37.71875 C 36.394531 -37.71875 33.6875 -36.925781 32.0625 -35.34375 C 30.4375 -33.769531 29.625 -31.046875 29.625 -27.171875 L 29.625 -4.734375 C 29.625 1.242188 28.003906 5.726562 24.765625 8.71875 C 21.523438 11.707031 16.9375 13.203125 11 13.203125 Z M 4.546875 13.203125 "/></g></g></g></svg>