<svg xmlns="http://www.w3.org/2000/svg" version="1.1" xmlns:xlink="http://www.w3.org/1999/xlink" xmlns:svgjs="http://svgjs.dev/svgjs" width="1000" height="1000"><style>
    #light-icon {
      display: inline;
    }
    #dark-icon {
      display: none;
    }

    @media (prefers-color-scheme: dark) {
      #light-icon {
        display: none;
      }
      #dark-icon {
        display: inline;
      }
    }
  </style><g id="light-icon"><svg xmlns="http://www.w3.org/2000/svg" version="1.1" xmlns:xlink="http://www.w3.org/1999/xlink" xmlns:svgjs="http://svgjs.dev/svgjs" width="1000" height="1000"><g clip-path="url(#SvgjsClipPath1243)"><rect width="1000" height="1000" fill="#fcf304"></rect><g transform="matrix(1.953125,0,0,1.953125,0.332485169172287,-0.007455833256244659)"><svg xmlns="http://www.w3.org/2000/svg" version="1.1" xmlns:xlink="http://www.w3.org/1999/xlink" xmlns:svgjs="http://svgjs.dev/svgjs" width="512" height="512"><svg xmlns="http://www.w3.org/2000/svg" xmlns:xlink="http://www.w3.org/1999/xlink" width="512" zoomAndPan="magnify" viewBox="0 0 384 383.999986" height="512" preserveAspectRatio="xMidYMid meet" version="1.0"><defs><g></g><clipPath id="SvgjsClipPath1243"><rect width="1000" height="1000" x="0" y="0" rx="500" ry="500"></rect></clipPath></defs><path fill="#fcf304" d="M 151.070312 369.167969 C 176.117188 383.539062 206.910156 383.539062 231.960938 369.167969 L 325.296875 315.613281 C 350.550781 301.125 366.121094 274.238281 366.121094 245.125 L 366.121094 138.886719 C 366.121094 109.773438 350.550781 82.886719 325.296875 68.398438 L 231.960938 14.84375 C 206.910156 0.472656 176.117188 0.472656 151.070312 14.84375 L 57.730469 68.398438 C 32.480469 82.886719 16.90625 109.773438 16.90625 138.886719 L 16.90625 245.125 C 16.90625 274.238281 32.480469 301.125 57.730469 315.613281 Z M 151.070312 369.167969 " fill-opacity="1" fill-rule="nonzero"></path><g fill="#11194b" fill-opacity="1"><g transform="translate(12.141424, 244.972601)"><g><path d="M 41.625 14.03125 C 35.3125 14.03125 30.441406 12.441406 27.015625 9.265625 C 23.597656 6.085938 21.890625 1.320312 21.890625 -5.03125 L 21.890625 -28.875 C 21.890625 -32.988281 21.023438 -35.882812 19.296875 -37.5625 C 17.578125 -39.25 14.703125 -40.09375 10.671875 -40.09375 L 5.296875 -40.09375 L 5.296875 -49.625 L 10.671875 -49.625 C 14.703125 -49.625 17.578125 -50.472656 19.296875 -52.171875 C 21.023438 -53.867188 21.890625 -56.78125 21.890625 -60.90625 L 21.890625 -84.734375 C 21.890625 -91.085938 23.597656 -95.851562 27.015625 -99.03125 C 30.441406 -102.21875 35.3125 -103.8125 41.625 -103.8125 L 48.546875 -103.8125 L 48.546875 -95.078125 L 43.046875 -95.078125 C 39.367188 -95.078125 36.644531 -94.238281 34.875 -92.5625 C 33.113281 -90.882812 32.234375 -88.273438 32.234375 -84.734375 L 32.234375 -61.703125 C 32.234375 -57.179688 31.367188 -53.675781 29.640625 -51.1875 C 27.921875 -48.707031 25.382812 -46.84375 22.03125 -45.59375 L 22.03125 -44.1875 C 25.382812 -42.925781 27.921875 -41.050781 29.640625 -38.5625 C 31.367188 -36.082031 32.234375 -32.582031 32.234375 -28.0625 L 32.234375 -5.03125 C 32.234375 -1.5 33.113281 1.101562 34.875 2.78125 C 36.644531 4.457031 39.367188 5.296875 43.046875 5.296875 L 48.546875 5.296875 L 48.546875 14.03125 Z M 41.625 14.03125 "></path></g></g></g><g fill="#11194b" fill-opacity="1"><g transform="translate(65.610656, 244.972601)"><g><path d="M 79.03125 -28.9375 C 79.03125 -20.476562 76.546875 -13.59375 71.578125 -8.28125 C 66.609375 -2.976562 59.332031 0.140625 49.75 1.078125 L 49.75 15.4375 L 34.78125 15.4375 L 34.78125 0.875 C 27.164062 -0.0625 20.75 -2.140625 15.53125 -5.359375 C 10.320312 -8.585938 6.46875 -12.375 3.96875 -16.71875 L 14.03125 -29 L 15.71875 -29 C 17.945312 -25.738281 20.660156 -22.941406 23.859375 -20.609375 C 27.066406 -18.285156 30.707031 -16.628906 34.78125 -15.640625 L 34.78125 -43.640625 L 33.109375 -44.046875 C 24.242188 -46.054688 17.660156 -49.300781 13.359375 -53.78125 C 9.066406 -58.257812 6.921875 -64.210938 6.921875 -71.640625 C 6.921875 -76.566406 8.003906 -80.960938 10.171875 -84.828125 C 12.335938 -88.703125 15.515625 -91.867188 19.703125 -94.328125 C 23.890625 -96.796875 28.914062 -98.390625 34.78125 -99.109375 L 34.78125 -113.609375 L 49.75 -113.609375 L 49.75 -99.25 C 55.351562 -98.664062 60.242188 -97.410156 64.421875 -95.484375 C 68.609375 -93.554688 72.25 -90.867188 75.34375 -87.421875 L 66.265625 -75 L 64.59375 -75 C 60.613281 -79.125 55.664062 -81.789062 49.75 -83 L 49.75 -57.8125 L 51.84375 -57.34375 C 61.457031 -55.28125 68.390625 -51.941406 72.640625 -47.328125 C 76.898438 -42.722656 79.03125 -36.59375 79.03125 -28.9375 Z M 24.984375 -72.390625 C 24.984375 -69.703125 25.71875 -67.472656 27.1875 -65.703125 C 28.664062 -63.929688 31.195312 -62.460938 34.78125 -61.296875 L 34.78125 -82.859375 C 31.507812 -82.097656 29.054688 -80.800781 27.421875 -78.96875 C 25.796875 -77.132812 24.984375 -74.941406 24.984375 -72.390625 Z M 49.75 -15.25 C 53.25 -16.007812 55.859375 -17.484375 57.578125 -19.671875 C 59.296875 -21.867188 60.15625 -24.535156 60.15625 -27.671875 C 60.15625 -30.710938 59.375 -33.21875 57.8125 -35.1875 C 56.25 -37.15625 53.5625 -38.765625 49.75 -40.015625 Z M 49.75 -15.25 "></path></g></g></g><g fill="#11194b" fill-opacity="1"><g transform="translate(149.874099, 244.972601)"><g><path d="M 79.03125 -28.9375 C 79.03125 -20.476562 76.546875 -13.59375 71.578125 -8.28125 C 66.609375 -2.976562 59.332031 0.140625 49.75 1.078125 L 49.75 15.4375 L 34.78125 15.4375 L 34.78125 0.875 C 27.164062 -0.0625 20.75 -2.140625 15.53125 -5.359375 C 10.320312 -8.585938 6.46875 -12.375 3.96875 -16.71875 L 14.03125 -29 L 15.71875 -29 C 17.945312 -25.738281 20.660156 -22.941406 23.859375 -20.609375 C 27.066406 -18.285156 30.707031 -16.628906 34.78125 -15.640625 L 34.78125 -43.640625 L 33.109375 -44.046875 C 24.242188 -46.054688 17.660156 -49.300781 13.359375 -53.78125 C 9.066406 -58.257812 6.921875 -64.210938 6.921875 -71.640625 C 6.921875 -76.566406 8.003906 -80.960938 10.171875 -84.828125 C 12.335938 -88.703125 15.515625 -91.867188 19.703125 -94.328125 C 23.890625 -96.796875 28.914062 -98.390625 34.78125 -99.109375 L 34.78125 -113.609375 L 49.75 -113.609375 L 49.75 -99.25 C 55.351562 -98.664062 60.242188 -97.410156 64.421875 -95.484375 C 68.609375 -93.554688 72.25 -90.867188 75.34375 -87.421875 L 66.265625 -75 L 64.59375 -75 C 60.613281 -79.125 55.664062 -81.789062 49.75 -83 L 49.75 -57.8125 L 51.84375 -57.34375 C 61.457031 -55.28125 68.390625 -51.941406 72.640625 -47.328125 C 76.898438 -42.722656 79.03125 -36.59375 79.03125 -28.9375 Z M 24.984375 -72.390625 C 24.984375 -69.703125 25.71875 -67.472656 27.1875 -65.703125 C 28.664062 -63.929688 31.195312 -62.460938 34.78125 -61.296875 L 34.78125 -82.859375 C 31.507812 -82.097656 29.054688 -80.800781 27.421875 -78.96875 C 25.796875 -77.132812 24.984375 -74.941406 24.984375 -72.390625 Z M 49.75 -15.25 C 53.25 -16.007812 55.859375 -17.484375 57.578125 -19.671875 C 59.296875 -21.867188 60.15625 -24.535156 60.15625 -27.671875 C 60.15625 -30.710938 59.375 -33.21875 57.8125 -35.1875 C 56.25 -37.15625 53.5625 -38.765625 49.75 -40.015625 Z M 49.75 -15.25 "></path></g></g></g><g fill="#11194b" fill-opacity="1"><g transform="translate(234.137542, 244.972601)"><g><path d="M 79.03125 -28.9375 C 79.03125 -20.476562 76.546875 -13.59375 71.578125 -8.28125 C 66.609375 -2.976562 59.332031 0.140625 49.75 1.078125 L 49.75 15.4375 L 34.78125 15.4375 L 34.78125 0.875 C 27.164062 -0.0625 20.75 -2.140625 15.53125 -5.359375 C 10.320312 -8.585938 6.46875 -12.375 3.96875 -16.71875 L 14.03125 -29 L 15.71875 -29 C 17.945312 -25.738281 20.660156 -22.941406 23.859375 -20.609375 C 27.066406 -18.285156 30.707031 -16.628906 34.78125 -15.640625 L 34.78125 -43.640625 L 33.109375 -44.046875 C 24.242188 -46.054688 17.660156 -49.300781 13.359375 -53.78125 C 9.066406 -58.257812 6.921875 -64.210938 6.921875 -71.640625 C 6.921875 -76.566406 8.003906 -80.960938 10.171875 -84.828125 C 12.335938 -88.703125 15.515625 -91.867188 19.703125 -94.328125 C 23.890625 -96.796875 28.914062 -98.390625 34.78125 -99.109375 L 34.78125 -113.609375 L 49.75 -113.609375 L 49.75 -99.25 C 55.351562 -98.664062 60.242188 -97.410156 64.421875 -95.484375 C 68.609375 -93.554688 72.25 -90.867188 75.34375 -87.421875 L 66.265625 -75 L 64.59375 -75 C 60.613281 -79.125 55.664062 -81.789062 49.75 -83 L 49.75 -57.8125 L 51.84375 -57.34375 C 61.457031 -55.28125 68.390625 -51.941406 72.640625 -47.328125 C 76.898438 -42.722656 79.03125 -36.59375 79.03125 -28.9375 Z M 24.984375 -72.390625 C 24.984375 -69.703125 25.71875 -67.472656 27.1875 -65.703125 C 28.664062 -63.929688 31.195312 -62.460938 34.78125 -61.296875 L 34.78125 -82.859375 C 31.507812 -82.097656 29.054688 -80.800781 27.421875 -78.96875 C 25.796875 -77.132812 24.984375 -74.941406 24.984375 -72.390625 Z M 49.75 -15.25 C 53.25 -16.007812 55.859375 -17.484375 57.578125 -19.671875 C 59.296875 -21.867188 60.15625 -24.535156 60.15625 -27.671875 C 60.15625 -30.710938 59.375 -33.21875 57.8125 -35.1875 C 56.25 -37.15625 53.5625 -38.765625 49.75 -40.015625 Z M 49.75 -15.25 "></path></g></g></g><g fill="#11194b" fill-opacity="1"><g transform="translate(318.554885, 244.972601)"><g><path d="M 4.828125 14.03125 L 4.828125 5.296875 L 10.265625 5.296875 C 13.941406 5.296875 16.660156 4.457031 18.421875 2.78125 C 20.191406 1.101562 21.078125 -1.5 21.078125 -5.03125 L 21.078125 -28.0625 C 21.078125 -32.582031 21.9375 -36.082031 23.65625 -38.5625 C 25.382812 -41.050781 27.953125 -42.925781 31.359375 -44.1875 L 31.359375 -45.59375 C 27.953125 -46.84375 25.382812 -48.707031 23.65625 -51.1875 C 21.9375 -53.675781 21.078125 -57.179688 21.078125 -61.703125 L 21.078125 -84.734375 C 21.078125 -88.273438 20.191406 -90.882812 18.421875 -92.5625 C 16.660156 -94.238281 13.941406 -95.078125 10.265625 -95.078125 L 4.828125 -95.078125 L 4.828125 -103.8125 L 11.6875 -103.8125 C 18 -103.8125 22.875 -102.21875 26.3125 -99.03125 C 29.757812 -95.851562 31.484375 -91.085938 31.484375 -84.734375 L 31.484375 -60.90625 C 31.484375 -56.78125 32.34375 -53.867188 34.0625 -52.171875 C 35.789062 -50.472656 38.671875 -49.625 42.703125 -49.625 L 48.015625 -49.625 L 48.015625 -40.09375 L 42.703125 -40.09375 C 38.671875 -40.09375 35.789062 -39.25 34.0625 -37.5625 C 32.34375 -35.882812 31.484375 -32.988281 31.484375 -28.875 L 31.484375 -5.03125 C 31.484375 1.320312 29.757812 6.085938 26.3125 9.265625 C 22.875 12.441406 18 14.03125 11.6875 14.03125 Z M 4.828125 14.03125 "></path></g></g></g></svg></svg></g></g></svg></g><g id="dark-icon"><svg xmlns="http://www.w3.org/2000/svg" version="1.1" xmlns:xlink="http://www.w3.org/1999/xlink" xmlns:svgjs="http://svgjs.dev/svgjs" width="1000" height="1000"><g><g transform="matrix(1.953125,0,0,1.953125,0.332485169172287,-0.007455833256244659)"><svg xmlns="http://www.w3.org/2000/svg" version="1.1" xmlns:xlink="http://www.w3.org/1999/xlink" xmlns:svgjs="http://svgjs.dev/svgjs" width="512" height="512"><svg xmlns="http://www.w3.org/2000/svg" xmlns:xlink="http://www.w3.org/1999/xlink" width="512" zoomAndPan="magnify" viewBox="0 0 384 383.999986" height="512" preserveAspectRatio="xMidYMid meet" version="1.0"><defs><g></g></defs><path fill="#fcf304" d="M 151.070312 369.167969 C 176.117188 383.539062 206.910156 383.539062 231.960938 369.167969 L 325.296875 315.613281 C 350.550781 301.125 366.121094 274.238281 366.121094 245.125 L 366.121094 138.886719 C 366.121094 109.773438 350.550781 82.886719 325.296875 68.398438 L 231.960938 14.84375 C 206.910156 0.472656 176.117188 0.472656 151.070312 14.84375 L 57.730469 68.398438 C 32.480469 82.886719 16.90625 109.773438 16.90625 138.886719 L 16.90625 245.125 C 16.90625 274.238281 32.480469 301.125 57.730469 315.613281 Z M 151.070312 369.167969 " fill-opacity="1" fill-rule="nonzero"></path><g fill="#11194b" fill-opacity="1"><g transform="translate(12.141424, 244.972601)"><g><path d="M 41.625 14.03125 C 35.3125 14.03125 30.441406 12.441406 27.015625 9.265625 C 23.597656 6.085938 21.890625 1.320312 21.890625 -5.03125 L 21.890625 -28.875 C 21.890625 -32.988281 21.023438 -35.882812 19.296875 -37.5625 C 17.578125 -39.25 14.703125 -40.09375 10.671875 -40.09375 L 5.296875 -40.09375 L 5.296875 -49.625 L 10.671875 -49.625 C 14.703125 -49.625 17.578125 -50.472656 19.296875 -52.171875 C 21.023438 -53.867188 21.890625 -56.78125 21.890625 -60.90625 L 21.890625 -84.734375 C 21.890625 -91.085938 23.597656 -95.851562 27.015625 -99.03125 C 30.441406 -102.21875 35.3125 -103.8125 41.625 -103.8125 L 48.546875 -103.8125 L 48.546875 -95.078125 L 43.046875 -95.078125 C 39.367188 -95.078125 36.644531 -94.238281 34.875 -92.5625 C 33.113281 -90.882812 32.234375 -88.273438 32.234375 -84.734375 L 32.234375 -61.703125 C 32.234375 -57.179688 31.367188 -53.675781 29.640625 -51.1875 C 27.921875 -48.707031 25.382812 -46.84375 22.03125 -45.59375 L 22.03125 -44.1875 C 25.382812 -42.925781 27.921875 -41.050781 29.640625 -38.5625 C 31.367188 -36.082031 32.234375 -32.582031 32.234375 -28.0625 L 32.234375 -5.03125 C 32.234375 -1.5 33.113281 1.101562 34.875 2.78125 C 36.644531 4.457031 39.367188 5.296875 43.046875 5.296875 L 48.546875 5.296875 L 48.546875 14.03125 Z M 41.625 14.03125 "></path></g></g></g><g fill="#11194b" fill-opacity="1"><g transform="translate(65.610656, 244.972601)"><g><path d="M 79.03125 -28.9375 C 79.03125 -20.476562 76.546875 -13.59375 71.578125 -8.28125 C 66.609375 -2.976562 59.332031 0.140625 49.75 1.078125 L 49.75 15.4375 L 34.78125 15.4375 L 34.78125 0.875 C 27.164062 -0.0625 20.75 -2.140625 15.53125 -5.359375 C 10.320312 -8.585938 6.46875 -12.375 3.96875 -16.71875 L 14.03125 -29 L 15.71875 -29 C 17.945312 -25.738281 20.660156 -22.941406 23.859375 -20.609375 C 27.066406 -18.285156 30.707031 -16.628906 34.78125 -15.640625 L 34.78125 -43.640625 L 33.109375 -44.046875 C 24.242188 -46.054688 17.660156 -49.300781 13.359375 -53.78125 C 9.066406 -58.257812 6.921875 -64.210938 6.921875 -71.640625 C 6.921875 -76.566406 8.003906 -80.960938 10.171875 -84.828125 C 12.335938 -88.703125 15.515625 -91.867188 19.703125 -94.328125 C 23.890625 -96.796875 28.914062 -98.390625 34.78125 -99.109375 L 34.78125 -113.609375 L 49.75 -113.609375 L 49.75 -99.25 C 55.351562 -98.664062 60.242188 -97.410156 64.421875 -95.484375 C 68.609375 -93.554688 72.25 -90.867188 75.34375 -87.421875 L 66.265625 -75 L 64.59375 -75 C 60.613281 -79.125 55.664062 -81.789062 49.75 -83 L 49.75 -57.8125 L 51.84375 -57.34375 C 61.457031 -55.28125 68.390625 -51.941406 72.640625 -47.328125 C 76.898438 -42.722656 79.03125 -36.59375 79.03125 -28.9375 Z M 24.984375 -72.390625 C 24.984375 -69.703125 25.71875 -67.472656 27.1875 -65.703125 C 28.664062 -63.929688 31.195312 -62.460938 34.78125 -61.296875 L 34.78125 -82.859375 C 31.507812 -82.097656 29.054688 -80.800781 27.421875 -78.96875 C 25.796875 -77.132812 24.984375 -74.941406 24.984375 -72.390625 Z M 49.75 -15.25 C 53.25 -16.007812 55.859375 -17.484375 57.578125 -19.671875 C 59.296875 -21.867188 60.15625 -24.535156 60.15625 -27.671875 C 60.15625 -30.710938 59.375 -33.21875 57.8125 -35.1875 C 56.25 -37.15625 53.5625 -38.765625 49.75 -40.015625 Z M 49.75 -15.25 "></path></g></g></g><g fill="#11194b" fill-opacity="1"><g transform="translate(149.874099, 244.972601)"><g><path d="M 79.03125 -28.9375 C 79.03125 -20.476562 76.546875 -13.59375 71.578125 -8.28125 C 66.609375 -2.976562 59.332031 0.140625 49.75 1.078125 L 49.75 15.4375 L 34.78125 15.4375 L 34.78125 0.875 C 27.164062 -0.0625 20.75 -2.140625 15.53125 -5.359375 C 10.320312 -8.585938 6.46875 -12.375 3.96875 -16.71875 L 14.03125 -29 L 15.71875 -29 C 17.945312 -25.738281 20.660156 -22.941406 23.859375 -20.609375 C 27.066406 -18.285156 30.707031 -16.628906 34.78125 -15.640625 L 34.78125 -43.640625 L 33.109375 -44.046875 C 24.242188 -46.054688 17.660156 -49.300781 13.359375 -53.78125 C 9.066406 -58.257812 6.921875 -64.210938 6.921875 -71.640625 C 6.921875 -76.566406 8.003906 -80.960938 10.171875 -84.828125 C 12.335938 -88.703125 15.515625 -91.867188 19.703125 -94.328125 C 23.890625 -96.796875 28.914062 -98.390625 34.78125 -99.109375 L 34.78125 -113.609375 L 49.75 -113.609375 L 49.75 -99.25 C 55.351562 -98.664062 60.242188 -97.410156 64.421875 -95.484375 C 68.609375 -93.554688 72.25 -90.867188 75.34375 -87.421875 L 66.265625 -75 L 64.59375 -75 C 60.613281 -79.125 55.664062 -81.789062 49.75 -83 L 49.75 -57.8125 L 51.84375 -57.34375 C 61.457031 -55.28125 68.390625 -51.941406 72.640625 -47.328125 C 76.898438 -42.722656 79.03125 -36.59375 79.03125 -28.9375 Z M 24.984375 -72.390625 C 24.984375 -69.703125 25.71875 -67.472656 27.1875 -65.703125 C 28.664062 -63.929688 31.195312 -62.460938 34.78125 -61.296875 L 34.78125 -82.859375 C 31.507812 -82.097656 29.054688 -80.800781 27.421875 -78.96875 C 25.796875 -77.132812 24.984375 -74.941406 24.984375 -72.390625 Z M 49.75 -15.25 C 53.25 -16.007812 55.859375 -17.484375 57.578125 -19.671875 C 59.296875 -21.867188 60.15625 -24.535156 60.15625 -27.671875 C 60.15625 -30.710938 59.375 -33.21875 57.8125 -35.1875 C 56.25 -37.15625 53.5625 -38.765625 49.75 -40.015625 Z M 49.75 -15.25 "></path></g></g></g><g fill="#11194b" fill-opacity="1"><g transform="translate(234.137542, 244.972601)"><g><path d="M 79.03125 -28.9375 C 79.03125 -20.476562 76.546875 -13.59375 71.578125 -8.28125 C 66.609375 -2.976562 59.332031 0.140625 49.75 1.078125 L 49.75 15.4375 L 34.78125 15.4375 L 34.78125 0.875 C 27.164062 -0.0625 20.75 -2.140625 15.53125 -5.359375 C 10.320312 -8.585938 6.46875 -12.375 3.96875 -16.71875 L 14.03125 -29 L 15.71875 -29 C 17.945312 -25.738281 20.660156 -22.941406 23.859375 -20.609375 C 27.066406 -18.285156 30.707031 -16.628906 34.78125 -15.640625 L 34.78125 -43.640625 L 33.109375 -44.046875 C 24.242188 -46.054688 17.660156 -49.300781 13.359375 -53.78125 C 9.066406 -58.257812 6.921875 -64.210938 6.921875 -71.640625 C 6.921875 -76.566406 8.003906 -80.960938 10.171875 -84.828125 C 12.335938 -88.703125 15.515625 -91.867188 19.703125 -94.328125 C 23.890625 -96.796875 28.914062 -98.390625 34.78125 -99.109375 L 34.78125 -113.609375 L 49.75 -113.609375 L 49.75 -99.25 C 55.351562 -98.664062 60.242188 -97.410156 64.421875 -95.484375 C 68.609375 -93.554688 72.25 -90.867188 75.34375 -87.421875 L 66.265625 -75 L 64.59375 -75 C 60.613281 -79.125 55.664062 -81.789062 49.75 -83 L 49.75 -57.8125 L 51.84375 -57.34375 C 61.457031 -55.28125 68.390625 -51.941406 72.640625 -47.328125 C 76.898438 -42.722656 79.03125 -36.59375 79.03125 -28.9375 Z M 24.984375 -72.390625 C 24.984375 -69.703125 25.71875 -67.472656 27.1875 -65.703125 C 28.664062 -63.929688 31.195312 -62.460938 34.78125 -61.296875 L 34.78125 -82.859375 C 31.507812 -82.097656 29.054688 -80.800781 27.421875 -78.96875 C 25.796875 -77.132812 24.984375 -74.941406 24.984375 -72.390625 Z M 49.75 -15.25 C 53.25 -16.007812 55.859375 -17.484375 57.578125 -19.671875 C 59.296875 -21.867188 60.15625 -24.535156 60.15625 -27.671875 C 60.15625 -30.710938 59.375 -33.21875 57.8125 -35.1875 C 56.25 -37.15625 53.5625 -38.765625 49.75 -40.015625 Z M 49.75 -15.25 "></path></g></g></g><g fill="#11194b" fill-opacity="1"><g transform="translate(318.554885, 244.972601)"><g><path d="M 4.828125 14.03125 L 4.828125 5.296875 L 10.265625 5.296875 C 13.941406 5.296875 16.660156 4.457031 18.421875 2.78125 C 20.191406 1.101562 21.078125 -1.5 21.078125 -5.03125 L 21.078125 -28.0625 C 21.078125 -32.582031 21.9375 -36.082031 23.65625 -38.5625 C 25.382812 -41.050781 27.953125 -42.925781 31.359375 -44.1875 L 31.359375 -45.59375 C 27.953125 -46.84375 25.382812 -48.707031 23.65625 -51.1875 C 21.9375 -53.675781 21.078125 -57.179688 21.078125 -61.703125 L 21.078125 -84.734375 C 21.078125 -88.273438 20.191406 -90.882812 18.421875 -92.5625 C 16.660156 -94.238281 13.941406 -95.078125 10.265625 -95.078125 L 4.828125 -95.078125 L 4.828125 -103.8125 L 11.6875 -103.8125 C 18 -103.8125 22.875 -102.21875 26.3125 -99.03125 C 29.757812 -95.851562 31.484375 -91.085938 31.484375 -84.734375 L 31.484375 -60.90625 C 31.484375 -56.78125 32.34375 -53.867188 34.0625 -52.171875 C 35.789062 -50.472656 38.671875 -49.625 42.703125 -49.625 L 48.015625 -49.625 L 48.015625 -40.09375 L 42.703125 -40.09375 C 38.671875 -40.09375 35.789062 -39.25 34.0625 -37.5625 C 32.34375 -35.882812 31.484375 -32.988281 31.484375 -28.875 L 31.484375 -5.03125 C 31.484375 1.320312 29.757812 6.085938 26.3125 9.265625 C 22.875 12.441406 18 14.03125 11.6875 14.03125 Z M 4.828125 14.03125 "></path></g></g></g></svg></svg></g></g></svg></g></svg>